<?xml version="1.0" encoding="iso-8859-1"?>
<!-- Generator: Adobe Illustrator 19.0.0, SVG Export Plug-In . SVG Version: 6.00 Build 0)  -->
<svg version="1.1" id="Layer_1" xmlns="http://www.w3.org/2000/svg" xmlns:xlink="http://www.w3.org/1999/xlink" x="0px" y="0px"
	 viewBox="0 0 512 512" style="enable-background:new 0 0 512 512;" xml:space="preserve">
<g>
	<g>
		<path d="M342.261,410.331l-59.363-17.809l-8.776-13.162c-3.072-4.608-8.211-7.412-13.748-7.501
			c-0.19-0.003-0.378,0.004-0.568,0.008v-23.64l4.44-3.699c7.976-6.646,13.271-15.953,14.911-26.203l1.015-6.346h6.267
			c14.086,0,25.546-11.46,25.546-25.546v-17.393c0-12.507-9.037-22.937-20.924-25.119l7.93-49.568
			c3.601-22.509-2.816-45.366-17.606-62.712s-36.348-27.293-59.144-27.293h-62.933c-22.796,0-44.353,9.948-59.144,27.293
			s-21.208,40.203-17.606,62.712l7.93,49.568c-11.886,2.183-20.924,12.612-20.924,25.119v17.393
			c0,14.086,11.46,25.546,25.546,25.546h6.267l1.015,6.346c1.64,10.251,6.936,19.557,14.911,26.203l4.44,3.7v23.637
			c-0.189-0.002-0.378-0.01-0.568-0.007c-5.538,0.089-10.676,2.893-13.748,7.5l-8.776,13.164l-59.363,17.809
			c-18.303,5.492-30.6,22.02-30.6,41.129v34.994C8.689,500.54,20.149,512,34.236,512h313.079c14.086,0,25.546-11.46,25.546-25.546
			V451.46C372.861,432.351,360.564,415.822,342.261,410.331z M260.11,388.163c0.285,0.003,0.388,0.158,0.443,0.241l7.954,11.931
			l-19.991,46.647c-0.031,0.072-0.104,0.244-0.36,0.311c-0.257,0.068-0.403-0.043-0.466-0.09l-19.561-14.671l31.53-44.141
			C259.718,388.309,259.833,388.152,260.11,388.163z M295.679,269.038v17.393c0,5.095-4.145,9.24-9.24,9.24h-3.658l5.702-35.638
			C292.597,260.967,295.679,264.646,295.679,269.038z M282.889,191.777l-7.56,47.255l-6.85-43.917
			c5.234-2.925,10.274-6.116,15.076-9.588C283.437,187.609,283.223,189.694,282.889,191.777z M95.112,295.671
			c-5.095,0-9.24-4.145-9.24-9.24v-17.393c0-4.392,3.082-8.07,7.195-9.004l5.702,35.638H95.112z M101.594,210.119l-2.935-18.343
			c-2.845-17.787,2.226-35.85,13.914-49.557c11.688-13.706,28.723-21.568,46.736-21.568h62.933c18.013,0,35.048,7.861,46.736,21.568
			c6.068,7.116,10.334,15.41,12.653,24.226c-22.003,18.822-54.106,31.822-95.512,38.657
			C152.799,210.601,120.676,210.75,101.594,210.119z M106.935,243.49v0.001l-2.729-17.054c3.658,0.099,7.612,0.163,11.822,0.175
			l-8.536,16.878H106.935z M118.497,315.747l-8.954-55.95h2.962c3.075,0,5.889-1.73,7.276-4.473l14.67-29.007
			c35.032-1.211,80.266-6.605,118.715-23.578l7.824,50.161c0.62,3.97,4.038,6.896,8.056,6.896h2.962l-6.266,39.165
			c-1.902,2.138-21.707,22.798-74.965,22.798c-4.503,0-8.153,3.65-8.153,8.153s3.65,8.153,8.153,8.153
			c34.181,0,56.547-7.838,70.178-15.406c-1.645,3.579-4.074,6.778-7.146,9.339l-34.904,29.087
			c-3.217,2.681-7.295,4.157-11.483,4.157h-33.289c-4.187,0-8.266-1.476-11.483-4.157L127.746,332
			C122.8,327.878,119.515,322.106,118.497,315.747z M120.997,388.404c0.055-0.083,0.159-0.237,0.444-0.241
			c0.275-0.011,0.392,0.146,0.451,0.227l31.53,44.141l-19.561,14.671c-0.064,0.047-0.211,0.159-0.466,0.09
			c-0.255-0.068-0.328-0.239-0.36-0.311l-19.991-46.647L120.997,388.404z M69.566,495.695h-35.33
			c-5.095-0.001-9.24-4.146-9.24-9.241V451.46c0-4.673,1.201-9.089,3.334-12.944l34.782,28.986c4.102,3.418,6.454,8.44,6.454,13.78
			V495.695z M85.872,495.694v-14.414c0-10.193-4.491-19.782-12.321-26.306l-33.173-27.646c1.154-0.534,2.349-1.005,3.599-1.38
			l55.204-16.561l18.864,44.017c2.05,4.782,6.109,8.297,11.136,9.64c1.452,0.388,2.924,0.579,4.385,0.579
			c3.595,0,7.116-1.158,10.076-3.378l17.229-12.922l18.138,48.369H85.872z M172.319,431.411c-0.023-0.061-0.052-0.116-0.076-0.176
			c-0.062-0.153-0.126-0.305-0.198-0.457c-0.054-0.114-0.112-0.225-0.171-0.335c-0.063-0.118-0.127-0.236-0.197-0.352
			c-0.079-0.134-0.164-0.262-0.25-0.39c-0.037-0.055-0.068-0.113-0.108-0.167l-33.309-46.631c0.026-0.266,0.041-0.536,0.041-0.809
			v-20.278l14.157,11.799c6.142,5.118,13.928,7.937,21.922,7.937h33.289c7.994,0,15.78-2.819,21.922-7.937l14.157-11.798v20.278
			c0,0.273,0.014,0.542,0.041,0.809l-33.309,46.631c-0.037,0.052-0.067,0.108-0.103,0.161c-0.089,0.13-0.175,0.263-0.257,0.4
			c-0.068,0.114-0.132,0.229-0.193,0.346c-0.06,0.112-0.118,0.224-0.173,0.339c-0.072,0.15-0.136,0.302-0.197,0.454
			c-0.024,0.06-0.053,0.115-0.076,0.176l-18.456,49.215L172.319,431.411z M295.68,481.281v14.414h-93.138l18.138-48.369
			l17.229,12.922c2.96,2.22,6.481,3.378,10.076,3.378c1.46,0,2.933-0.191,4.385-0.579c5.028-1.344,9.086-4.858,11.136-9.641
			l18.864-44.017l55.205,16.561c1.248,0.376,2.444,0.848,3.598,1.381l-33.173,27.646C300.17,461.499,295.68,471.088,295.68,481.281z
			 M356.555,486.454c0,5.095-4.145,9.24-9.24,9.24h-35.33v-14.414c0-5.339,2.352-10.361,6.454-13.78l34.782-28.986
			c2.133,3.854,3.334,8.269,3.334,12.944V486.454z"/>
	</g>
</g>
<g>
	<g>
		<path d="M471.624,24.223C451.503,6.207,424.446-2.411,397.376,0.584c-42.493,4.702-77.558,38.795-83.377,81.065
			c-5.329,38.719,12.97,76.319,46.618,95.79c2.858,1.655,4.634,4.697,4.634,7.94v31.479c0,14.086,11.46,25.546,25.546,25.546h9.24
			v0.544c0,4.503,3.65,8.153,8.153,8.153s8.153-3.65,8.153-8.153v-0.544h9.24c14.086,0,25.546-11.46,25.546-25.546v-31.472
			c0-3.244,1.807-6.306,4.714-7.993c29.278-16.979,47.466-48.511,47.466-82.288C503.311,68.091,491.762,42.255,471.624,24.223z
			 M434.825,216.858c0,5.095-4.145,9.24-9.24,9.24h-34.787c-5.095,0-9.24-4.145-9.24-9.24v-9.24h53.267V216.858z M447.665,163.288
			c-7.919,4.593-12.84,13.061-12.84,22.099v5.926h-53.267v-5.932c0-9.043-4.894-17.494-12.773-22.054
			c-27.889-16.139-43.053-47.326-38.632-79.453c4.815-34.978,33.84-63.189,69.016-67.082c3.062-0.339,6.104-0.507,9.123-0.507
			c19.453,0,37.811,6.974,52.454,20.086c16.688,14.943,26.258,36.351,26.258,58.734C487.005,123.088,471.93,149.214,447.665,163.288
			z"/>
	</g>
</g>
<g>
	<g>
		<path d="M408.192,43.468c-4.503,0-8.153,3.65-8.153,8.153v60.877c0,4.503,3.65,8.153,8.153,8.153s8.153-3.65,8.153-8.153V51.622
			C416.345,47.119,412.694,43.468,408.192,43.468z"/>
	</g>
</g>
<g>
	<g>
		<path d="M408.192,139.132c-4.503,0-8.153,3.65-8.153,8.153s3.65,8.153,8.153,8.153h0.087c4.503,0,8.11-3.65,8.11-8.153
			S412.694,139.132,408.192,139.132z"/>
	</g>
</g>
<g>
</g>
<g>
</g>
<g>
</g>
<g>
</g>
<g>
</g>
<g>
</g>
<g>
</g>
<g>
</g>
<g>
</g>
<g>
</g>
<g>
</g>
<g>
</g>
<g>
</g>
<g>
</g>
<g>
</g>
</svg>
