<?xml version="1.0" encoding="iso-8859-1"?>
<!-- Generator: Adobe Illustrator 19.0.0, SVG Export Plug-In . SVG Version: 6.00 Build 0)  -->
<svg version="1.1" id="Layer_1" xmlns="http://www.w3.org/2000/svg" xmlns:xlink="http://www.w3.org/1999/xlink" x="0px" y="0px"
	 viewBox="0 0 512.003 512.003" style="enable-background:new 0 0 512.003 512.003;" xml:space="preserve">
<g>
	<g>
		<path d="M414.56,151.221c-4.847-4.779-13.278-4.821-18.125,0L256.002,291.679l-80.555-80.58c-4.847-4.804-13.252-4.804-18.099,0
			c-2.398,2.423-3.746,5.649-3.746,9.054c0,3.422,1.348,6.647,3.746,9.071l89.6,89.6c2.423,2.398,5.649,3.746,9.054,3.746
			s6.622-1.348,9.054-3.746L414.56,169.346C419.535,164.345,419.535,156.221,414.56,151.221z"/>
	</g>
</g>
<g>
	<g>
		<path d="M427.437,192.667l-20.693,20.693c4.002,13.978,6.69,28.194,6.69,42.641c0,86.801-70.622,157.423-157.423,157.423
			S98.579,342.803,98.579,256.002S169.201,98.579,256.002,98.579c41.6,0,81.289,16.776,110.763,46.123l11.563-11.571
			c2.236-2.227,4.762-4.019,7.407-5.598c-34.33-34.671-80.922-54.579-129.732-54.579c-100.924,0-183.049,82.125-183.049,183.049
			S155.078,439.05,256.002,439.05s183.049-82.125,183.049-183.049C439.051,234.225,434.989,213.011,427.437,192.667z"/>
	</g>
</g>
<g>
	<g>
		<path d="M506.985,240.787l-22.366-30.259l9.088-36.514c2.714-10.914-2.005-22.323-11.648-28.117L449.811,126.5l-5.581-37.214
			c-1.664-11.119-10.402-19.857-21.521-21.521l-37.214-5.581l-19.396-32.247c-4.702-7.825-13.107-12.407-21.931-12.407
			c-2.048,0-4.13,0.247-6.187,0.759l-36.514,9.088L271.209,5.011c-4.514-3.337-9.856-5.009-15.206-5.009s-10.692,1.673-15.215,5.009
			l-30.259,22.366l-36.514-9.088c-2.057-0.512-4.13-0.759-6.187-0.759c-8.832,0-17.229,4.591-21.939,12.407l-19.396,32.247
			l-37.205,5.581c-11.119,1.664-19.849,10.402-21.521,21.521L62.185,126.5l-32.247,19.396c-9.634,5.794-14.362,17.203-11.648,28.117
			l9.088,36.514L5.011,240.787c-6.682,9.045-6.682,21.393,0,30.438l22.366,30.259l-9.088,36.514
			c-2.714,10.914,2.005,22.323,11.648,28.117l32.247,19.396l5.581,37.214c1.664,11.119,10.402,19.857,21.521,21.521l37.205,5.581
			l19.396,32.247c4.702,7.825,13.107,12.407,21.939,12.407c2.048,0,4.122-0.247,6.187-0.759l36.514-9.088l30.259,22.366
			c4.523,3.328,9.865,5.001,15.215,5.001s10.692-1.672,15.215-5.009l30.259-22.366l36.514,9.088c2.057,0.512,4.13,0.759,6.187,0.759
			c8.832,0,17.229-4.591,21.931-12.407l19.396-32.247l37.214-5.581c11.119-1.664,19.857-10.394,21.521-21.521l5.581-37.214
			l32.247-19.396c9.634-5.794,14.362-17.203,11.648-28.117l-9.088-36.514l22.366-30.259
			C513.675,262.18,513.675,249.824,506.985,240.787z M456.868,295.955l11.998,48.213l-42.573,25.609l-7.373,49.135l-49.135,7.364
			l-25.609,42.581l-48.213-11.998l-39.962,29.542l-39.953-29.534l-48.213,11.998l-25.609-42.581l-49.135-7.364l-7.364-49.135
			l-42.573-25.609l11.998-48.213l-29.551-39.962l29.534-39.953l-11.998-48.213l42.573-25.609l7.364-49.135l49.135-7.364
			l25.609-42.581l48.213,11.998l39.97-29.542l39.953,29.534l48.213-11.998l25.609,42.581l49.135,7.364l7.373,49.135l42.573,25.609
			L456.86,216.04l29.542,39.962L456.868,295.955z"/>
	</g>
</g>
<g>
</g>
<g>
</g>
<g>
</g>
<g>
</g>
<g>
</g>
<g>
</g>
<g>
</g>
<g>
</g>
<g>
</g>
<g>
</g>
<g>
</g>
<g>
</g>
<g>
</g>
<g>
</g>
<g>
</g>
</svg>
