<?xml version="1.0" encoding="UTF-8" standalone="no"?>
<!-- Generator: Adobe Illustrator 18.0.0, SVG Export Plug-In . SVG Version: 6.00 Build 0)  -->

<svg
   xmlns:dc="http://purl.org/dc/elements/1.1/"
   xmlns:cc="http://creativecommons.org/ns#"
   xmlns:rdf="http://www.w3.org/1999/02/22-rdf-syntax-ns#"
   xmlns:svg="http://www.w3.org/2000/svg"
   xmlns="http://www.w3.org/2000/svg"
   xmlns:sodipodi="http://sodipodi.sourceforge.net/DTD/sodipodi-0.dtd"
   xmlns:inkscape="http://www.inkscape.org/namespaces/inkscape"
   version="1.1"
   id="Capa_1"
   x="0px"
   y="0px"
   viewBox="0 0 59.99 59.99"
   style="enable-background:new 0 0 59.99 59.99;"
   xml:space="preserve"
   sodipodi:docname="time-passing.svg"
   inkscape:version="0.92.0 r15299"><metadata
     id="metadata113"><rdf:RDF><cc:Work
         rdf:about=""><dc:format>image/svg+xml</dc:format><dc:type
           rdf:resource="http://purl.org/dc/dcmitype/StillImage" /></cc:Work></rdf:RDF></metadata><defs
     id="defs111" /><sodipodi:namedview
     pagecolor="#ffffff"
     bordercolor="#666666"
     borderopacity="1"
     objecttolerance="10"
     gridtolerance="10"
     guidetolerance="10"
     inkscape:pageopacity="0"
     inkscape:pageshadow="2"
     inkscape:window-width="1600"
     inkscape:window-height="877"
     id="namedview109"
     showgrid="false"
     inkscape:zoom="3.9339889"
     inkscape:cx="29.995001"
     inkscape:cy="29.995001"
     inkscape:window-x="-8"
     inkscape:window-y="-8"
     inkscape:window-maximized="1"
     inkscape:current-layer="Capa_1" /><g
     id="g76"
     transform="matrix(-1,0,0,1,59.99067,0)"><path
       d="m 1.005,31 c 0.552,0 1,-0.447 1,-1 0,-15.439 12.561,-28 28,-28 6.327,0 12.378,2.115 17.302,6 h -5.302 c -0.552,0 -1,0.447 -1,1 0,0.553 0.448,1 1,1 h 7.915 c 0.066,0.006 0.128,0.007 0.193,0 h 0.891 V 1 c 0,-0.553 -0.448,-1 -1,-1 -0.552,0 -1,0.447 -1,1 V 6.81 C 43.648,2.408 36.986,0 30.005,0 c -16.542,0 -30,13.458 -30,30 0,0.553 0.448,1 1,1 z"
       id="path2"
       inkscape:connector-curvature="0" /><path
       d="m 30.005,8 c -12.131,0 -22,9.869 -22,22 0,12.131 9.869,22 22,22 12.131,0 22,-9.869 22,-22 0,-12.131 -9.869,-22 -22,-22 z m 0,42 c -11.028,0 -20,-8.972 -20,-20 0,-11.028 8.972,-20 20,-20 11.028,0 20,8.972 20,20 0,11.028 -8.972,20 -20,20 z"
       id="path4"
       inkscape:connector-curvature="0" /><path
       d="m 30.005,15 c 0.552,0 1,-0.447 1,-1 v -2 c 0,-0.553 -0.448,-1 -1,-1 -0.552,0 -1,0.447 -1,1 v 2 c 0,0.553 0.448,1 1,1 z"
       id="path6"
       inkscape:connector-curvature="0" /><path
       d="m 30.005,45 c -0.552,0 -1,0.447 -1,1 v 2 c 0,0.553 0.448,1 1,1 0.552,0 1,-0.447 1,-1 v -2 c 0,-0.553 -0.448,-1 -1,-1 z"
       id="path8"
       inkscape:connector-curvature="0" /><path
       d="m 46.005,31 h 2 c 0.552,0 1,-0.447 1,-1 0,-0.553 -0.448,-1 -1,-1 h -2 c -0.552,0 -1,0.447 -1,1 0,0.553 0.448,1 1,1 z"
       id="path10"
       inkscape:connector-curvature="0" /><path
       d="m 14.005,29 h -2 c -0.552,0 -1,0.447 -1,1 0,0.553 0.448,1 1,1 h 2 c 0.552,0 1,-0.447 1,-1 0,-0.553 -0.448,-1 -1,-1 z"
       id="path12"
       inkscape:connector-curvature="0" /><path
       d="M 31.005,25.142 V 20 c 0,-0.553 -0.448,-1 -1,-1 -0.552,0 -1,0.447 -1,1 v 5.142 c -1.72,0.447 -3,1.999 -3,3.858 0,0.74 0.215,1.424 0.567,2.019 l -8.274,8.274 c -0.391,0.391 -0.391,1.023 0,1.414 0.195,0.195 0.451,0.293 0.707,0.293 0.256,0 0.512,-0.098 0.707,-0.293 l 8.274,-8.274 c 0.595,0.352 1.279,0.567 2.019,0.567 2.206,0 4,-1.794 4,-4 0,-1.859 -1.28,-3.411 -3,-3.858 z m -1,5.858 c -1.103,0 -2,-0.897 -2,-2 0,-1.103 0.897,-2 2,-2 1.103,0 2,0.897 2,2 0,1.103 -0.897,2 -2,2 z"
       id="path14"
       inkscape:connector-curvature="0" /><path
       d="m 11.894,52.66 c -0.33,0.439 -0.24,1.069 0.21,1.399 0.17,0.13 0.38,0.19 0.59,0.19 0.31,0 0.61,-0.13 0.81,-0.4 0.32,-0.439 0.23,-1.069 -0.21,-1.399 -0.44,-0.33 -1.069,-0.24 -1.4,0.21 z"
       id="path16"
       inkscape:connector-curvature="0" /><path
       d="m 7.235,46.27 c -0.32,-0.439 -0.95,-0.55 -1.4,-0.229 -0.45,0.33 -0.55,0.95 -0.23,1.399 0.2,0.271 0.5,0.42 0.82,0.42 0.2,0 0.4,-0.06 0.58,-0.189 0.449,-0.321 0.55,-0.951 0.23,-1.401 z"
       id="path18"
       inkscape:connector-curvature="0" /><path
       d="m 7.624,48.45 c -0.41,0.369 -0.45,1 -0.08,1.409 0.19,0.23 0.47,0.341 0.75,0.341 0.23,0 0.47,-0.08 0.66,-0.25 0.41,-0.37 0.45,-1 0.08,-1.41 -0.359,-0.42 -0.989,-0.45 -1.41,-0.09 z"
       id="path20"
       inkscape:connector-curvature="0" /><path
       d="m 11.065,50.6 c -0.4,-0.37 -1.04,-0.34 -1.41,0.061 -0.38,0.409 -0.35,1.04 0.06,1.42 0.19,0.17 0.43,0.26 0.67,0.26 0.27,0 0.54,-0.11 0.74,-0.32 0.37,-0.41 0.35,-1.04 -0.06,-1.41 0,-0.011 0,-0.011 0,-0.011 z"
       id="path22"
       inkscape:connector-curvature="0" /><path
       d="m 5.675,43.84 c -0.01,0 -0.01,0 -0.01,0 -0.27,-0.48 -0.88,-0.65 -1.36,-0.37 -0.48,0.271 -0.65,0.88 -0.37,1.36 0.18,0.319 0.52,0.5 0.87,0.5 0.16,0 0.34,-0.04 0.49,-0.13 0.48,-0.27 0.65,-0.881 0.38,-1.36 z"
       id="path24"
       inkscape:connector-curvature="0" /><path
       d="m 58.945,32.12 c 0.02,0 0.03,0 0.04,0 0.54,0 0.98,-0.431 1,-0.96 0.02,-0.561 -0.41,-1.021 -0.96,-1.04 -0.55,-0.021 -1.02,0.41 -1.04,0.96 -0.02,0.55 0.409,1.02 0.96,1.04 z"
       id="path26"
       inkscape:connector-curvature="0" /><path
       d="m 1.265,33.99 c 0.55,-0.061 0.95,-0.551 0.89,-1.101 -0.06,-0.55 -0.55,-0.95 -1.1,-0.89 -0.55,0.05 -0.95,0.55 -0.89,1.09 0.05,0.52 0.49,0.9 0.99,0.9 0.04,0.001 0.07,0.001 0.11,0.001 z"
       id="path28"
       inkscape:connector-curvature="0" /><path
       d="m 1.825,36.93 c 0.54,-0.11 0.89,-0.64 0.77,-1.18 -0.11,-0.54 -0.64,-0.891 -1.18,-0.771 -0.54,0.11 -0.89,0.641 -0.77,1.181 0.09,0.47 0.51,0.79 0.97,0.79 0.069,0 0.14,0 0.21,-0.02 z"
       id="path30"
       inkscape:connector-curvature="0" /><path
       d="m 4.365,41.25 c -0.22,-0.5 -0.81,-0.73 -1.32,-0.51 -0.5,0.22 -0.73,0.81 -0.51,1.319 0.17,0.37 0.53,0.601 0.92,0.601 0.13,0 0.27,-0.03 0.4,-0.091 0.499,-0.219 0.729,-0.809 0.51,-1.319 z"
       id="path32"
       inkscape:connector-curvature="0" /><path
       d="m 3.334,38.55 c -0.16,-0.53 -0.73,-0.82 -1.25,-0.65 -0.53,0.17 -0.82,0.73 -0.65,1.261 0.14,0.42 0.53,0.689 0.95,0.689 0.1,0 0.21,-0.01 0.31,-0.04 0.521,-0.17 0.811,-0.741 0.64,-1.26 z"
       id="path34"
       inkscape:connector-curvature="0" /><path
       d="m 29.465,57.99 c -0.55,-0.011 -1.01,0.43 -1.02,0.979 -0.01,0.561 0.43,1.01 0.98,1.021 0.01,0 0.02,0 0.02,0 0.55,0 0.99,-0.431 1,-0.98 0.009,-0.55 -0.43,-1.01 -0.98,-1.02 z"
       id="path36"
       inkscape:connector-curvature="0" /><path
       d="m 52.135,47.14 c -0.34,0.43 -0.26,1.061 0.17,1.4 0.19,0.14 0.4,0.21 0.62,0.21 0.29,0 0.59,-0.13 0.79,-0.391 0.34,-0.43 0.26,-1.06 -0.18,-1.399 -0.44,-0.339 -1.06,-0.26 -1.4,0.18 z"
       id="path38"
       inkscape:connector-curvature="0" /><path
       d="m 45.834,53.08 c -0.45,0.31 -0.57,0.939 -0.25,1.39 0.19,0.28 0.5,0.43 0.82,0.43 0.2,0 0.39,-0.05 0.57,-0.17 0.45,-0.31 0.57,-0.939 0.25,-1.39 -0.31,-0.46 -0.929,-0.57 -1.39,-0.26 z"
       id="path40"
       inkscape:connector-curvature="0" /><path
       d="m 48.135,51.319 c -0.42,0.36 -0.47,0.99 -0.11,1.41 0.2,0.23 0.48,0.351 0.76,0.351 0.23,0 0.46,-0.08 0.65,-0.24 0.42,-0.36 0.47,-0.99 0.11,-1.41 -0.361,-0.42 -0.99,-0.47 -1.41,-0.111 z"
       id="path42"
       inkscape:connector-curvature="0" /><path
       d="m 55.164,44.439 c -0.47,-0.29 -1.09,-0.14 -1.38,0.32 -0.29,0.47 -0.15,1.09 0.32,1.38 0.17,0.101 0.35,0.15 0.53,0.15 0.33,0 0.66,-0.16 0.85,-0.471 0.291,-0.468 0.151,-1.089 -0.32,-1.379 z"
       id="path44"
       inkscape:connector-curvature="0" /><path
       d="m 50.245,49.33 c -0.39,0.399 -0.37,1.029 0.03,1.41 0.19,0.189 0.44,0.279 0.69,0.279 0.26,0 0.53,-0.1 0.72,-0.31 0.38,-0.4 0.37,-1.03 -0.03,-1.41 -0.4,-0.38 -1.031,-0.369 -1.41,0.031 z"
       id="path46"
       inkscape:connector-curvature="0" /><path
       d="m 58.854,33.109 c -0.54,-0.079 -1.05,0.311 -1.13,0.851 -0.08,0.55 0.3,1.05 0.85,1.13 0.05,0.01 0.1,0.01 0.14,0.01 0.49,0 0.92,-0.359 0.99,-0.859 0.081,-0.541 -0.299,-1.052 -0.85,-1.132 z"
       id="path48"
       inkscape:connector-curvature="0" /><path
       d="m 58.385,36.069 c -0.54,-0.13 -1.08,0.2 -1.22,0.73 -0.13,0.54 0.2,1.08 0.73,1.22 0.08,0.021 0.16,0.03 0.24,0.03 0.45,0 0.86,-0.31 0.97,-0.76 0.14,-0.539 -0.191,-1.079 -0.72,-1.22 z"
       id="path50"
       inkscape:connector-curvature="0" /><path
       d="m 15.704,54.06 c -0.48,-0.279 -1.09,-0.13 -1.37,0.351 -0.29,0.47 -0.13,1.09 0.34,1.37 0.16,0.1 0.34,0.14 0.51,0.14 0.34,0 0.67,-0.17 0.86,-0.49 0.29,-0.471 0.131,-1.081 -0.34,-1.371 z"
       id="path52"
       inkscape:connector-curvature="0" /><path
       d="m 57.604,38.97 c -0.52,-0.189 -1.1,0.08 -1.28,0.6 -0.19,0.521 0.07,1.091 0.59,1.28 0.11,0.04 0.23,0.061 0.34,0.061 0.41,0 0.8,-0.25 0.94,-0.66 0.191,-0.522 -0.07,-1.091 -0.59,-1.281 z"
       id="path54"
       inkscape:connector-curvature="0" /><path
       d="m 56.525,41.77 c -0.49,-0.239 -1.1,-0.04 -1.34,0.46 -0.24,0.5 -0.03,1.101 0.46,1.34 0.14,0.07 0.29,0.101 0.44,0.101 0.37,0 0.73,-0.21 0.9,-0.561 0.24,-0.501 0.04,-1.1 -0.46,-1.34 z"
       id="path56"
       inkscape:connector-curvature="0" /><path
       d="m 26.575,57.79 c -0.55,-0.07 -1.04,0.319 -1.11,0.87 -0.07,0.55 0.32,1.05 0.87,1.109 v 0.011 c 0.04,0 0.08,0 0.12,0 0.5,0 0.93,-0.37 0.99,-0.881 0.07,-0.549 -0.321,-1.04 -0.87,-1.109 z"
       id="path58"
       inkscape:connector-curvature="0" /><path
       d="m 20.945,56.5 c -0.52,-0.181 -1.09,0.09 -1.27,0.62 -0.18,0.52 0.1,1.09 0.62,1.27 0.11,0.03 0.22,0.05 0.33,0.05 0.41,0 0.8,-0.26 0.94,-0.67 0.18,-0.53 -0.1,-1.1 -0.62,-1.27 z"
       id="path60"
       inkscape:connector-curvature="0" /><path
       d="m 23.725,57.29 c -0.54,-0.12 -1.07,0.21 -1.2,0.75 -0.12,0.54 0.22,1.08 0.75,1.2 0.08,0.02 0.15,0.02 0.23,0.02 0.45,0 0.87,-0.31 0.97,-0.77 0.129,-0.54 -0.21,-1.08 -0.75,-1.2 z"
       id="path62"
       inkscape:connector-curvature="0" /><path
       d="m 18.265,55.42 c -0.51,-0.24 -1.1,-0.021 -1.33,0.479 -0.23,0.5 -0.02,1.101 0.48,1.33 0.14,0.061 0.28,0.09 0.42,0.09 0.38,0 0.74,-0.21 0.91,-0.579 0.23,-0.5 0.02,-1.091 -0.48,-1.32 z"
       id="path64"
       inkscape:connector-curvature="0" /><path
       d="m 35.225,57.51 c -0.54,0.1 -0.9,0.63 -0.8,1.17 0.09,0.48 0.52,0.811 0.99,0.811 0.06,0 0.12,0 0.18,-0.011 0.54,-0.109 0.9,-0.63 0.8,-1.17 -0.1,-0.55 -0.63,-0.9 -1.17,-0.8 z"
       id="path66"
       inkscape:connector-curvature="0" /><path
       d="m 38.035,56.83 c -0.53,0.149 -0.83,0.71 -0.67,1.239 0.13,0.431 0.53,0.711 0.96,0.711 0.09,0 0.19,-0.011 0.29,-0.04 0.53,-0.16 0.83,-0.721 0.67,-1.25 -0.161,-0.52 -0.72,-0.82 -1.25,-0.66 z"
       id="path68"
       inkscape:connector-curvature="0" /><path
       d="m 40.765,55.85 c -0.51,0.21 -0.75,0.8 -0.54,1.311 0.16,0.38 0.53,0.609 0.92,0.609 0.13,0 0.26,-0.02 0.39,-0.069 0.51,-0.221 0.75,-0.801 0.54,-1.311 -0.221,-0.51 -0.8,-0.75 -1.31,-0.54 z"
       id="path70"
       inkscape:connector-curvature="0" /><path
       d="m 32.354,57.899 c -0.55,0.051 -0.96,0.53 -0.91,1.08 0.04,0.521 0.48,0.92 1,0.92 0.02,0 0.05,0 0.08,0 v -0.01 c 0.55,-0.04 0.96,-0.52 0.91,-1.07 -0.04,-0.549 -0.529,-0.96 -1.08,-0.92 z"
       id="path72"
       inkscape:connector-curvature="0" /><path
       d="m 43.374,54.6 c -0.49,0.26 -0.67,0.87 -0.4,1.351 0.18,0.34 0.52,0.529 0.88,0.529 0.16,0 0.32,-0.04 0.47,-0.13 0.49,-0.26 0.67,-0.87 0.4,-1.35 -0.259,-0.49 -0.87,-0.67 -1.35,-0.4 z"
       id="path74"
       inkscape:connector-curvature="0" /></g><g
     id="g78"
     transform="matrix(-1,0,0,1,59.99067,0)" /><g
     id="g80"
     transform="matrix(-1,0,0,1,59.99067,0)" /><g
     id="g82"
     transform="matrix(-1,0,0,1,59.99067,0)" /><g
     id="g84"
     transform="matrix(-1,0,0,1,59.99067,0)" /><g
     id="g86"
     transform="matrix(-1,0,0,1,59.99067,0)" /><g
     id="g88"
     transform="matrix(-1,0,0,1,59.99067,0)" /><g
     id="g90"
     transform="matrix(-1,0,0,1,59.99067,0)" /><g
     id="g92"
     transform="matrix(-1,0,0,1,59.99067,0)" /><g
     id="g94"
     transform="matrix(-1,0,0,1,59.99067,0)" /><g
     id="g96"
     transform="matrix(-1,0,0,1,59.99067,0)" /><g
     id="g98"
     transform="matrix(-1,0,0,1,59.99067,0)" /><g
     id="g100"
     transform="matrix(-1,0,0,1,59.99067,0)" /><g
     id="g102"
     transform="matrix(-1,0,0,1,59.99067,0)" /><g
     id="g104"
     transform="matrix(-1,0,0,1,59.99067,0)" /><g
     id="g106"
     transform="matrix(-1,0,0,1,59.99067,0)" /></svg>